<?xml version="1.0" encoding="utf-8"?><!-- Uploaded to: SVG Repo, www.svgrepo.com, Generator: SVG Repo Mixer Tools -->
<svg fill="#000000" width="800px" height="800px" viewBox="0 0 24 24" id="folder-code" data-name="Flat Line" xmlns="http://www.w3.org/2000/svg" class="icon flat-line"><path id="secondary" d="M21,8V19a1,1,0,0,1-1,1H4a1,1,0,0,1-1-1V5A1,1,0,0,1,4,4H9.59a1,1,0,0,1,.7.29l2.42,2.42a1,1,0,0,0,.7.29H20A1,1,0,0,1,21,8Z" style="fill: rgb(44, 169, 188); stroke-width: 2;"></path><polyline id="primary" points="10 11 8 13 10 15" style="fill: none; stroke: rgb(0, 0, 0); stroke-linecap: round; stroke-linejoin: round; stroke-width: 2;"></polyline><polyline id="primary-2" data-name="primary" points="14 15 16 13 14 11" style="fill: none; stroke: rgb(0, 0, 0); stroke-linecap: round; stroke-linejoin: round; stroke-width: 2;"></polyline><path id="primary-3" data-name="primary" d="M21,8V19a1,1,0,0,1-1,1H4a1,1,0,0,1-1-1V5A1,1,0,0,1,4,4H9.59a1,1,0,0,1,.7.29l2.42,2.42a1,1,0,0,0,.7.29H20A1,1,0,0,1,21,8Z" style="fill: none; stroke: rgb(0, 0, 0); stroke-linecap: round; stroke-linejoin: round; stroke-width: 2;"></path></svg>